<svg xmlns="http://www.w3.org/2000/svg" version="1.1" xmlns:xlink="http://www.w3.org/1999/xlink" xmlns:svgjs="http://svgjs.com/svgjs" width="1000" height="100" preserveAspectRatio="none" viewBox="0 0 1000 100"><g mask="url(&quot;#SvgjsMask2152&quot;)" fill="none"><g transform="translate(0, 0)" stroke-linecap="round" stroke="url(#SvgjsLinearGradient2153)"><path d="M5 43.51 L5 56.49" stroke-width="7.5"></path><path d="M15 7.81 L15 92.19" stroke-width="7.5"></path><path d="M25 13.02 L25 86.98" stroke-width="7.5"></path><path d="M35 33.48 L35 66.53" stroke-width="7.5"></path><path d="M45 34.37 L45 65.63" stroke-width="7.5"></path><path d="M55 27.25 L55 72.75" stroke-width="7.5"></path><path d="M65 22.03 L65 77.97" stroke-width="7.5"></path><path d="M75 14.15 L75 85.85" stroke-width="7.5"></path><path d="M85 15.03 L85 84.97" stroke-width="7.5"></path><path d="M95 9.13 L95 90.88" stroke-width="7.5"></path><path d="M105 18.5 L105 81.5" stroke-width="7.5"></path><path d="M115 24.64 L115 75.36" stroke-width="7.5"></path><path d="M125 14.13 L125 85.87" stroke-width="7.5"></path><path d="M135 42.66 L135 57.34" stroke-width="7.5"></path><path d="M145 30.57 L145 69.44" stroke-width="7.5"></path><path d="M155 40.5 L155 59.5" stroke-width="7.5"></path><path d="M165 42.49 L165 57.51" stroke-width="7.5"></path><path d="M175 41.25 L175 58.75" stroke-width="7.5"></path><path d="M185 43.33 L185 56.67" stroke-width="7.5"></path><path d="M195 26.46 L195 73.53" stroke-width="7.5"></path><path d="M205 29.31 L205 70.69" stroke-width="7.5"></path><path d="M215 38.45 L215 61.55" stroke-width="7.5"></path><path d="M225 14.76 L225 85.24" stroke-width="7.5"></path><path d="M235 14.34 L235 85.66" stroke-width="7.5"></path><path d="M245 13.42 L245 86.58" stroke-width="7.5"></path><path d="M255 28.29 L255 71.71" stroke-width="7.5"></path><path d="M265 35.05 L265 64.95" stroke-width="7.5"></path><path d="M275 31.25 L275 68.75" stroke-width="7.5"></path><path d="M285 21.99 L285 78.01" stroke-width="7.5"></path><path d="M295 42.45 L295 57.55" stroke-width="7.5"></path><path d="M305 29.54 L305 70.47" stroke-width="7.5"></path><path d="M315 30.96 L315 69.04" stroke-width="7.5"></path><path d="M325 21.23 L325 78.77" stroke-width="7.5"></path><path d="M335 39.53 L335 60.47" stroke-width="7.5"></path><path d="M345 7.66 L345 92.34" stroke-width="7.5"></path><path d="M355 36.99 L355 63.01" stroke-width="7.5"></path><path d="M365 22.06 L365 77.94" stroke-width="7.5"></path><path d="M375 10.92 L375 89.08" stroke-width="7.5"></path><path d="M385 32.2 L385 67.8" stroke-width="7.5"></path><path d="M395 43.53 L395 56.47" stroke-width="7.5"></path><path d="M405 27.3 L405 72.69" stroke-width="7.5"></path><path d="M415 36.64 L415 63.36" stroke-width="7.5"></path><path d="M425 7.34 L425 92.66" stroke-width="7.5"></path><path d="M435 27.93 L435 72.08" stroke-width="7.5"></path><path d="M445 43.91 L445 56.09" stroke-width="7.5"></path><path d="M455 39.06 L455 60.94" stroke-width="7.5"></path><path d="M465 27.54 L465 72.47" stroke-width="7.5"></path><path d="M475 25.88 L475 74.13" stroke-width="7.5"></path><path d="M485 28.14 L485 71.86" stroke-width="7.5"></path><path d="M495 34.98 L495 65.03" stroke-width="7.5"></path><path d="M505 32.28 L505 67.72" stroke-width="7.5"></path><path d="M515 34.64 L515 65.36" stroke-width="7.5"></path><path d="M525 9.41 L525 90.59" stroke-width="7.5"></path><path d="M535 11.16 L535 88.84" stroke-width="7.5"></path><path d="M545 18.98 L545 81.03" stroke-width="7.5"></path><path d="M555 24.13 L555 75.88" stroke-width="7.5"></path><path d="M565 5.27 L565 94.72" stroke-width="7.5"></path><path d="M575 30.91 L575 69.09" stroke-width="7.5"></path><path d="M585 9.4 L585 90.6" stroke-width="7.5"></path><path d="M595 32.48 L595 67.52" stroke-width="7.5"></path><path d="M605 15.28 L605 84.72" stroke-width="7.5"></path><path d="M615 24.82 L615 75.17" stroke-width="7.5"></path><path d="M625 32.53 L625 67.47" stroke-width="7.5"></path><path d="M635 27.57 L635 72.43" stroke-width="7.5"></path><path d="M645 42.02 L645 57.98" stroke-width="7.5"></path><path d="M655 11.11 L655 88.89" stroke-width="7.5"></path><path d="M665 29.48 L665 70.52" stroke-width="7.5"></path><path d="M675 24.11 L675 75.89" stroke-width="7.5"></path><path d="M685 12.53 L685 87.47" stroke-width="7.5"></path><path d="M695 22.71 L695 77.29" stroke-width="7.5"></path><path d="M705 39.45 L705 60.55" stroke-width="7.5"></path><path d="M715 36.34 L715 63.66" stroke-width="7.5"></path><path d="M725 32.15 L725 67.85" stroke-width="7.5"></path><path d="M735 8.75 L735 91.25" stroke-width="7.5"></path><path d="M745 12.83 L745 87.17" stroke-width="7.5"></path><path d="M755 13.7 L755 86.31" stroke-width="7.5"></path><path d="M765 26.03 L765 73.97" stroke-width="7.5"></path><path d="M775 40.73 L775 59.27" stroke-width="7.5"></path><path d="M785 24.49 L785 75.51" stroke-width="7.5"></path><path d="M795 14.45 L795 85.55" stroke-width="7.5"></path><path d="M805 25.91 L805 74.09" stroke-width="7.5"></path><path d="M815 27.86 L815 72.14" stroke-width="7.5"></path><path d="M825 44.19 L825 55.81" stroke-width="7.5"></path><path d="M835 21.52 L835 78.48" stroke-width="7.5"></path><path d="M845 29.96 L845 70.03" stroke-width="7.5"></path><path d="M855 6.7 L855 93.3" stroke-width="7.5"></path><path d="M865 38.77 L865 61.23" stroke-width="7.5"></path><path d="M875 34.16 L875 65.84" stroke-width="7.5"></path><path d="M885 31.89 L885 68.11" stroke-width="7.5"></path><path d="M895 39.7 L895 60.3" stroke-width="7.5"></path><path d="M905 19.98 L905 80.02" stroke-width="7.5"></path><path d="M915 27.34 L915 72.66" stroke-width="7.5"></path><path d="M925 14.51 L925 85.5" stroke-width="7.5"></path><path d="M935 6.87 L935 93.13" stroke-width="7.5"></path><path d="M945 15.35 L945 84.65" stroke-width="7.5"></path><path d="M955 23.31 L955 76.69" stroke-width="7.5"></path><path d="M965 43.49 L965 56.51" stroke-width="7.5"></path><path d="M975 17.62 L975 82.38" stroke-width="7.5"></path><path d="M985 21.73 L985 78.27" stroke-width="7.5"></path><path d="M995 37.35 L995 62.65" stroke-width="7.5"></path></g></g><defs><mask id="SvgjsMask2152"><rect width="1000" height="100" fill="#ffffff"></rect></mask><linearGradient x1="0" y1="50" x2="1000" y2="50" gradientUnits="userSpaceOnUse" id="SvgjsLinearGradient2153"><stop stop-color="rgba(237, 20, 91, 1)" offset="0"></stop><stop stop-color="rgba(110, 35, 157, 1)" offset="1"></stop></linearGradient></defs></svg>